<svg width="41" height="38" xmlns="http://www.w3.org/2000/svg">

 <g>
  <title>Layer 1</title>
  <g stroke="null">

   <title stroke="null">website</title>
   <path stroke="null" fill-rule="evenodd" d="m4.1918,10.37603l32.19367,0l0,17.17425l-32.19367,0l0,-17.17425zm4.40804,11.71132l-1.35069,-6.67647l2.0959,0l0.57554,4.46146l0.89824,-4.44967l1.66341,0l0.89492,4.44967l0.4591,-4.44967l2.0959,0l-1.33073,6.67647l-2.2323,0l-0.76184,-3.24791l-0.80842,3.22827l-2.19903,0.00785zm8.84935,0l-1.35069,-6.67647l2.0959,0l0.57554,4.46146l0.90157,-4.44967l1.66341,0l0.89159,4.44967l0.4591,-4.44967l2.0959,0l-1.33073,6.67647l-2.22897,0l-0.76517,-3.24791l-0.80842,3.22827l-2.19903,0.00785zm8.84935,0l-1.34736,-6.66469l2.0959,0l0.56556,4.44967l0.90157,-4.44967l1.66341,0l0.89824,4.44967l0.4591,-4.44967l2.0959,0l-1.33073,6.67647l-2.22897,0l-0.76517,-3.24791l-0.80842,3.22827l-2.19903,0.00785zm-23.53062,-22.08735l35.34417,0a2.77457,3.2754 0 0 1 2.76792,3.26755l0,30.97491a2.7779,3.27933 0 0 1 -2.76792,3.26755l-35.34417,0a2.77457,3.2754 0 0 1 -2.76792,-3.26755l0,-30.97491a2.77457,3.2754 0 0 1 2.76792,-3.26755zm36.4886,7.89395l-37.49662,0l0,26.66662a0.76184,0.89936 0 0 0 0.76517,0.90329l35.92969,0a0.76184,0.89936 0 0 0 0.76517,-0.90329l0,-26.66662l0.0366,0zm-3.77927,-5.05841a1.36732,1.61414 0 1 1 -1.36732,1.61414a1.36732,1.61414 0 0 1 1.36732,-1.61414zm-9.26188,0a1.36732,1.61414 0 1 1 -1.36732,1.61414a1.36732,1.61414 0 0 1 1.36732,-1.61414zm4.63094,0a1.36732,1.61414 0 1 1 -1.36732,1.61414a1.36732,1.61414 0 0 1 1.36732,-1.61414zm-8.59984,30.44472a1.16771,1.3785 0 0 1 0,-2.74914l13.19085,0a1.16771,1.3785 0 0 1 0,2.74914l-13.19085,0zm-17.25623,0a1.17104,1.38242 0 0 1 0,-2.74914l12.21609,0a1.17104,1.38242 0 0 1 0,2.74914l-12.21609,0z" class="cls-1"/>
  </g>
 </g>
</svg>