<svg width="50" height="50" xmlns="http://www.w3.org/2000/svg" fill="none">

 <g>
  <title>Layer 1</title>
  <path stroke-dasharray="5,5" stroke="null" id="svg_1" fill="#242038" d="m25,5.64292c-12.48924,0 -22.605,7.74356 -22.605,17.28106c0,7.63753 6.48062,14.10874 15.45775,16.40034c1.12522,0.15904 1.5413,-0.3711 1.5413,-0.83797c0,-0.41386 -0.01342,-1.49467 -0.02908,-2.93804c-6.286,1.03977 -7.61702,-2.31212 -7.61702,-2.31212c-1.02903,-1.99574 -2.51216,-2.52589 -2.51216,-2.52589c-2.05358,-1.07055 0.15212,-1.05003 0.15212,-1.05003c2.26162,0.12826 3.4696,1.78198 3.4696,1.78198c2.01331,2.64218 5.2883,1.87774 6.57681,1.43311c0.21028,-1.11502 0.7919,-1.87774 1.43169,-2.31383c-5.02433,-0.43438 -10.29696,-1.91879 -10.29696,-8.53878c0,-1.88972 0.87243,-3.42714 2.33097,-4.63622c-0.23712,-0.43609 -1.01337,-2.19583 0.22146,-4.57294c0,0 1.90146,-0.46687 6.21889,1.77172a21.93837,16.77144 0 0 1 5.65964,-0.58316a22.0189,16.83301 0 0 1 5.66188,0.58316c4.31743,-2.23859 6.21889,-1.77172 6.21889,-1.77172c1.23259,2.37711 0.45635,4.13856 0.21923,4.57294c1.44511,1.20908 2.31754,2.7465 2.31754,4.63451c0,6.64222 -5.28606,8.09585 -10.32381,8.53023c0.80532,0.53015 1.5413,1.59044 1.5413,3.20482c0,2.31212 -0.02908,4.16935 -0.02908,4.74225c0,0.46516 0.40266,0.99702 1.55472,0.826c8.97936,-2.2916 15.44433,-8.76281 15.44433,-16.39008c0,-9.54777 -10.11577,-17.29133 -22.605,-17.29133z" clip-rule="evenodd" fill-rule="evenodd"/>
 </g>
</svg>