<svg width="60" height="60" xmlns="http://www.w3.org/2000/svg" preserveAspectRatio="xMidYMid" version="1.1">

 <g>
  <title>Layer 1</title>
  <g stroke="null" id="svg_1">
   <path stroke="null" id="svg_2" fill="#40B3E0" d="m30,2c-16.01638,0 -29,12.75976 -29,28.5l0,0c0,15.74024 12.98362,28.5 29,28.5l0,0c16.01638,0 29,-12.75976 29,-28.5l0,0c0,-15.74024 -12.98362,-28.5 -29,-28.5l0,0z"/>
   <path stroke="null" id="svg_3" fill="#FFFFFF" d="m44.1109,18.39435l-5.17967,25.66492c0,0 -0.72432,1.77991 -2.71648,0.92558l-11.95298,-9.006l-4.34637,-2.06447l-7.31661,-2.42072c0,0 -1.12284,-0.39143 -1.23159,-1.24576c-0.10852,-0.85433 1.26784,-1.31701 1.26784,-1.31701l29.08519,-11.21297c0,0 2.39069,-1.03223 2.39069,0.67643"/>
   <path stroke="null" id="svg_4" fill="#D2E5F1" d="m23.34309,43.77109c0,0 -0.34891,-0.03206 -0.78368,-1.38492c-0.43455,-1.35264 -2.64398,-8.47185 -2.64398,-8.47185l17.56698,-10.96359c0,0 1.01432,-0.60518 0.97807,0c0,0 0.18102,0.10665 -0.36227,0.60496c-0.5433,0.49853 -13.80015,12.20958 -13.80015,12.20958"/>
   <path stroke="null" id="svg_5" fill="#B5CFE4" d="m28.84487,39.43194l-4.72791,4.23626c0,0 -0.36952,0.27565 -0.77394,0.10287l0.90534,-7.8689"/>
  </g>
 </g>
</svg>